<svg width="24" height="23" viewBox="0 0 24 23" fill="none" xmlns="http://www.w3.org/2000/svg">
<path d="M0.25782 0H2.19141C2.33321 0 2.44923 0.116016 2.44923 0.257812V16.9512H18.1113V14.5986C18.1113 14.3827 18.3627 14.2603 18.5303 14.3956L23.1032 18.005C23.134 18.0291 23.159 18.0599 23.1761 18.0951C23.1932 18.1303 23.2021 18.1689 23.2021 18.208C23.2021 18.2471 23.1932 18.2858 23.1761 18.3209C23.159 18.3561 23.134 18.3869 23.1032 18.411L18.5303 22.0204C18.3595 22.1558 18.1113 22.0333 18.1113 21.8174V19.4004H2.06251C0.92491 19.4004 7.62939e-06 18.4755 7.62939e-06 17.3379V0.257812C7.62939e-06 0.116016 0.116024 0 0.25782 0Z" fill="white"/>
</svg>
